<svg width="120" height="74" fill="none" xmlns="http://www.w3.org/2000/svg"><rect width="120" height="74" rx="4" fill="#4D4D50"/><rect x=".5" y=".5" width="119" height="73" rx="3.5" stroke="#fff" stroke-opacity=".12"/><path stroke="#fff" stroke-opacity=".12" stroke-width="2" d="M36 1v72"/><path fill="#58595E" d="M37 47h82v8H37z"/><rect x="5" y="9" width="26" height="4" rx="2" fill="#80868B"/><rect x="40" y="5" width="26" height="2" rx="1" fill="#80868B"/><rect x="40" y="9" width="76" height="12" rx="2" fill="#5F6368"/><rect x="5" y="17" width="26" height="4" rx="2" fill="#80868B"/><rect x="68" y="41" width="48" height="4" rx="2" fill="#80868B"/><rect x="68" y="49" width="48" height="4" rx="2" fill="#80868B"/><rect x="68" y="57" width="48" height="4" rx="2" fill="#80868B"/><rect x="68" y="65" width="48" height="4" rx="2" fill="#80868B"/><rect x="68" y="33" width="48" height="4" rx="2" fill="#80868B"/><rect x="68" y="25" width="48" height="4" rx="2" fill="#80868B"/><rect x="5" y="25" width="26" height="4" rx="2" fill="#A1C2FA"/><rect x="46" y="49" width="20" height="4" rx="2" fill="#A1C2FA"/><rect x="46" y="41" width="20" height="4" rx="2" fill="#80868B"/><rect x="46" y="57" width="20" height="4" rx="2" fill="#80868B"/><rect x="46" y="65" width="20" height="4" rx="2" fill="#80868B"/><rect x="46" y="33" width="20" height="4" rx="2" fill="#80868B"/><rect x="46" y="25" width="20" height="4" rx="2" fill="#80868B"/><rect x="5" y="33" width="26" height="4" rx="2" fill="#80868B"/><circle cx="42" cy="27" r="2" fill="#A8DAB5"/><circle cx="42" cy="35" r="2" fill="#A8DAB5"/><circle cx="42" cy="43" r="2" fill="#A8DAB5"/><circle cx="42" cy="51" r="2" fill="#A8DAB5"/><circle cx="42" cy="59" r="2" fill="#A8DAB5"/><circle cx="42" cy="67" r="2" fill="#A8DAB5"/></svg>