<svg width="120" height="74" fill="none" xmlns="http://www.w3.org/2000/svg"><rect width="120" height="74" rx="4" fill="#fff"/><rect x=".5" y=".5" width="119" height="73" rx="3.5" stroke="#000" stroke-opacity=".12"/><path stroke="#000" stroke-opacity=".12" stroke-width="2" d="M36 1v72"/><path fill="#E8F0FE" d="M37 47h82v8H37z"/><rect x="5" y="9" width="26" height="4" rx="2" fill="#DADCE0"/><rect x="40" y="5" width="26" height="2" rx="1" fill="#DADCE0"/><rect x="40" y="9" width="76" height="12" rx="2" fill="#F1F3F4"/><rect x="5" y="17" width="26" height="4" rx="2" fill="#DADCE0"/><rect x="68" y="41" width="48" height="4" rx="2" fill="#DADCE0"/><rect x="68" y="49" width="48" height="4" rx="2" fill="#DADCE0"/><rect x="68" y="57" width="48" height="4" rx="2" fill="#DADCE0"/><rect x="68" y="65" width="48" height="4" rx="2" fill="#DADCE0"/><rect x="68" y="33" width="48" height="4" rx="2" fill="#DADCE0"/><rect x="68" y="25" width="48" height="4" rx="2" fill="#DADCE0"/><rect x="5" y="25" width="26" height="4" rx="2" fill="#AECBFA"/><rect x="46" y="49" width="20" height="4" rx="2" fill="#AECBFA"/><rect x="46" y="41" width="20" height="4" rx="2" fill="#DADCE0"/><rect x="46" y="57" width="20" height="4" rx="2" fill="#DADCE0"/><rect x="46" y="65" width="20" height="4" rx="2" fill="#DADCE0"/><rect x="46" y="33" width="20" height="4" rx="2" fill="#DADCE0"/><rect x="46" y="25" width="20" height="4" rx="2" fill="#DADCE0"/><rect x="5" y="33" width="26" height="4" rx="2" fill="#DADCE0"/><circle cx="42" cy="27" r="2" fill="#81C995"/><circle cx="42" cy="35" r="2" fill="#81C995"/><circle cx="42" cy="43" r="2" fill="#81C995"/><circle cx="42" cy="51" r="2" fill="#81C995"/><circle cx="42" cy="59" r="2" fill="#81C995"/><circle cx="42" cy="67" r="2" fill="#81C995"/></svg>